<?xml version="1.0" encoding="UTF-8" standalone="no"?>
<!-- Created with Inkscape (http://www.inkscape.org/) -->
<svg
   xmlns:svg="http://www.w3.org/2000/svg"
   xmlns="http://www.w3.org/2000/svg"
   version="1.0"
   width="430"
   height="472.94922"
   id="svg2">
  <defs
     id="defs4" />
  <g
     transform="translate(-75,-207.36218)"
     id="layer1">
    <path
       d="M 80,412.36218 L 220,412.36218"
       id="path2389"
       style="fill:none;fill-rule:evenodd;stroke:#808080;stroke-width:10;stroke-linecap:butt;stroke-linejoin:miter;stroke-miterlimit:4;stroke-dasharray:none;stroke-opacity:1" />
    <path
       d="M 220,212.36218 L 220,612.36218"
       id="path2391"
       style="fill:none;fill-rule:evenodd;stroke:#808080;stroke-width:10;stroke-linecap:butt;stroke-linejoin:miter;stroke-miterlimit:4;stroke-dasharray:none;stroke-opacity:1" />
    <path
       d="M 500,412.36218 L 360,412.36218"
       id="path2393"
       style="fill:none;fill-rule:evenodd;stroke:#808080;stroke-width:10;stroke-linecap:butt;stroke-linejoin:miter;stroke-miterlimit:4;stroke-dasharray:none;stroke-opacity:1" />
    <path
       d="M 360,212.36218 L 360,612.36218"
       id="path2395"
       style="fill:none;fill-rule:evenodd;stroke:#808080;stroke-width:10;stroke-linecap:butt;stroke-linejoin:miter;stroke-miterlimit:4;stroke-dasharray:none;stroke-opacity:1" />
    <g
       id="g8376">
      <path
         d="M 220,231.46875 L 220,233.25 L 360,233.25 L 360,231.46875 L 220,231.46875 z"
         id="path3167"
         style="fill:#0000ff;fill-opacity:1;fill-rule:evenodd;stroke:none;stroke-width:1.79999995;stroke-linecap:butt;stroke-linejoin:miter;stroke-miterlimit:4;stroke-dasharray:none;stroke-opacity:1" />
      <path
         d="M 342,232.36218 L 334.8,239.56218 L 360,232.36218 L 334.8,225.16218 L 342,232.36218 z"
         id="path8382"
         style="fill:#0000ff;fill-rule:evenodd;stroke:#0000ff;stroke-width:1.43999996pt;marker-start:none" />
    </g>
    <g
       id="g8384">
      <path
         d="M 220,251.46875 L 220,253.25 L 360,253.25 L 360,251.46875 L 220,251.46875 z"
         id="path4505"
         style="fill:#0000ff;fill-opacity:1;fill-rule:evenodd;stroke:none;stroke-width:1.79999995;stroke-linecap:butt;stroke-linejoin:miter;stroke-miterlimit:4;stroke-dasharray:none;stroke-opacity:1" />
      <path
         d="M 342,252.36218 L 334.8,259.56218 L 360,252.36218 L 334.8,245.16218 L 342,252.36218 z"
         id="path8390"
         style="fill:#0000ff;fill-rule:evenodd;stroke:#0000ff;stroke-width:1.43999996pt;marker-start:none" />
    </g>
    <g
       id="g8392">
      <path
         d="M 220,271.46875 L 220,273.25 L 360,273.25 L 360,271.46875 L 220,271.46875 z"
         id="path4507"
         style="fill:#0000ff;fill-opacity:1;fill-rule:evenodd;stroke:none;stroke-width:1.79999995;stroke-linecap:butt;stroke-linejoin:miter;stroke-miterlimit:4;stroke-dasharray:none;stroke-opacity:1" />
      <path
         d="M 342,272.36218 L 334.8,279.56218 L 360,272.36218 L 334.8,265.16218 L 342,272.36218 z"
         id="path8398"
         style="fill:#0000ff;fill-rule:evenodd;stroke:#0000ff;stroke-width:1.43999996pt;marker-start:none" />
    </g>
    <g
       id="g8400">
      <path
         d="M 220,291.46875 L 220,293.25 L 360,293.25 L 360,291.46875 L 220,291.46875 z"
         id="path4509"
         style="fill:#0000ff;fill-opacity:1;fill-rule:evenodd;stroke:none;stroke-width:1.79999995;stroke-linecap:butt;stroke-linejoin:miter;stroke-miterlimit:4;stroke-dasharray:none;stroke-opacity:1" />
      <path
         d="M 342,292.36218 L 334.8,299.56218 L 360,292.36218 L 334.8,285.16218 L 342,292.36218 z"
         id="path8406"
         style="fill:#0000ff;fill-rule:evenodd;stroke:#0000ff;stroke-width:1.43999996pt;marker-start:none" />
    </g>
    <g
       id="g8408">
      <path
         d="M 220,311.46875 L 220,313.25 L 360,313.25 L 360,311.46875 L 220,311.46875 z"
         id="path4511"
         style="fill:#0000ff;fill-opacity:1;fill-rule:evenodd;stroke:none;stroke-width:1.79999995;stroke-linecap:butt;stroke-linejoin:miter;stroke-miterlimit:4;stroke-dasharray:none;stroke-opacity:1" />
      <path
         d="M 342,312.36218 L 334.8,319.56218 L 360,312.36218 L 334.8,305.16218 L 342,312.36218 z"
         id="path8414"
         style="fill:#0000ff;fill-rule:evenodd;stroke:#0000ff;stroke-width:1.43999996pt;marker-start:none" />
    </g>
    <g
       id="g8416">
      <path
         d="M 220,331.46875 L 220,333.25 L 360,333.25 L 360,331.46875 L 220,331.46875 z"
         id="path4513"
         style="fill:#0000ff;fill-opacity:1;fill-rule:evenodd;stroke:none;stroke-width:1.79999995;stroke-linecap:butt;stroke-linejoin:miter;stroke-miterlimit:4;stroke-dasharray:none;stroke-opacity:1" />
      <path
         d="M 342,332.36218 L 334.8,339.56218 L 360,332.36218 L 334.8,325.16218 L 342,332.36218 z"
         id="path8422"
         style="fill:#0000ff;fill-rule:evenodd;stroke:#0000ff;stroke-width:1.43999996pt;marker-start:none" />
    </g>
    <g
       id="g8424">
      <path
         d="M 220,351.46875 L 220,353.25 L 360,353.25 L 360,351.46875 L 220,351.46875 z"
         id="path4515"
         style="fill:#0000ff;fill-opacity:1;fill-rule:evenodd;stroke:none;stroke-width:1.79999995;stroke-linecap:butt;stroke-linejoin:miter;stroke-miterlimit:4;stroke-dasharray:none;stroke-opacity:1" />
      <path
         d="M 342,352.36218 L 334.8,359.56218 L 360,352.36218 L 334.8,345.16218 L 342,352.36218 z"
         id="path8430"
         style="fill:#0000ff;fill-rule:evenodd;stroke:#0000ff;stroke-width:1.43999996pt;marker-start:none" />
    </g>
    <g
       id="g8432">
      <path
         d="M 220,371.46875 L 220,373.25 L 360,373.25 L 360,371.46875 L 220,371.46875 z"
         id="path4517"
         style="fill:#0000ff;fill-opacity:1;fill-rule:evenodd;stroke:none;stroke-width:1.79999995;stroke-linecap:butt;stroke-linejoin:miter;stroke-miterlimit:4;stroke-dasharray:none;stroke-opacity:1" />
      <path
         d="M 342,372.36218 L 334.8,379.56218 L 360,372.36218 L 334.8,365.16218 L 342,372.36218 z"
         id="path8438"
         style="fill:#0000ff;fill-rule:evenodd;stroke:#0000ff;stroke-width:1.43999996pt;marker-start:none" />
    </g>
    <g
       id="g8440">
      <path
         d="M 220,391.46875 L 220,393.25 L 360,393.25 L 360,391.46875 L 220,391.46875 z"
         id="path4519"
         style="fill:#0000ff;fill-opacity:1;fill-rule:evenodd;stroke:none;stroke-width:1.79999995;stroke-linecap:butt;stroke-linejoin:miter;stroke-miterlimit:4;stroke-dasharray:none;stroke-opacity:1" />
      <path
         d="M 342,392.36218 L 334.8,399.56218 L 360,392.36218 L 334.8,385.16218 L 342,392.36218 z"
         id="path8446"
         style="fill:#0000ff;fill-rule:evenodd;stroke:#0000ff;stroke-width:1.43999996pt;marker-start:none" />
    </g>
    <g
       id="g8448">
      <path
         d="M 220,411.46875 L 220,413.25 L 360,413.25 L 360,411.46875 L 220,411.46875 z"
         id="path4521"
         style="fill:#0000ff;fill-opacity:1;fill-rule:evenodd;stroke:none;stroke-width:1.79999995;stroke-linecap:butt;stroke-linejoin:miter;stroke-miterlimit:4;stroke-dasharray:none;stroke-opacity:1" />
      <path
         d="M 342,412.36218 L 334.8,419.56218 L 360,412.36218 L 334.8,405.16218 L 342,412.36218 z"
         id="path8454"
         style="fill:#0000ff;fill-rule:evenodd;stroke:#0000ff;stroke-width:1.43999996pt;marker-start:none" />
    </g>
    <g
       id="g8456">
      <path
         d="M 220,431.46875 L 220,433.25 L 360,433.25 L 360,431.46875 L 220,431.46875 z"
         id="path4523"
         style="fill:#0000ff;fill-opacity:1;fill-rule:evenodd;stroke:none;stroke-width:1.79999995;stroke-linecap:butt;stroke-linejoin:miter;stroke-miterlimit:4;stroke-dasharray:none;stroke-opacity:1" />
      <path
         d="M 342,432.36218 L 334.8,439.56218 L 360,432.36218 L 334.8,425.16218 L 342,432.36218 z"
         id="path8462"
         style="fill:#0000ff;fill-rule:evenodd;stroke:#0000ff;stroke-width:1.43999996pt;marker-start:none" />
    </g>
    <g
       id="g8464">
      <path
         d="M 220,451.46875 L 220,453.25 L 360,453.25 L 360,451.46875 L 220,451.46875 z"
         id="path4525"
         style="fill:#0000ff;fill-opacity:1;fill-rule:evenodd;stroke:none;stroke-width:1.79999995;stroke-linecap:butt;stroke-linejoin:miter;stroke-miterlimit:4;stroke-dasharray:none;stroke-opacity:1" />
      <path
         d="M 342,452.36218 L 334.8,459.56218 L 360,452.36218 L 334.8,445.16218 L 342,452.36218 z"
         id="path8470"
         style="fill:#0000ff;fill-rule:evenodd;stroke:#0000ff;stroke-width:1.43999996pt;marker-start:none" />
    </g>
    <g
       id="g8472">
      <path
         d="M 220,471.46875 L 220,473.25 L 360,473.25 L 360,471.46875 L 220,471.46875 z"
         id="path4527"
         style="fill:#0000ff;fill-opacity:1;fill-rule:evenodd;stroke:none;stroke-width:1.79999995;stroke-linecap:butt;stroke-linejoin:miter;stroke-miterlimit:4;stroke-dasharray:none;stroke-opacity:1" />
      <path
         d="M 342,472.36218 L 334.8,479.56218 L 360,472.36218 L 334.8,465.16218 L 342,472.36218 z"
         id="path8478"
         style="fill:#0000ff;fill-rule:evenodd;stroke:#0000ff;stroke-width:1.43999996pt;marker-start:none" />
    </g>
    <g
       id="g8480">
      <path
         d="M 220,491.46875 L 220,493.25 L 360,493.25 L 360,491.46875 L 220,491.46875 z"
         id="path4529"
         style="fill:#0000ff;fill-opacity:1;fill-rule:evenodd;stroke:none;stroke-width:1.79999995;stroke-linecap:butt;stroke-linejoin:miter;stroke-miterlimit:4;stroke-dasharray:none;stroke-opacity:1" />
      <path
         d="M 342,492.36218 L 334.8,499.56218 L 360,492.36218 L 334.8,485.16218 L 342,492.36218 z"
         id="path8486"
         style="fill:#0000ff;fill-rule:evenodd;stroke:#0000ff;stroke-width:1.43999996pt;marker-start:none" />
    </g>
    <g
       id="g8488">
      <path
         d="M 220,511.46875 L 220,513.25 L 360,513.25 L 360,511.46875 L 220,511.46875 z"
         id="path4531"
         style="fill:#0000ff;fill-opacity:1;fill-rule:evenodd;stroke:none;stroke-width:1.79999995;stroke-linecap:butt;stroke-linejoin:miter;stroke-miterlimit:4;stroke-dasharray:none;stroke-opacity:1" />
      <path
         d="M 342,512.36218 L 334.8,519.56218 L 360,512.36218 L 334.8,505.16218 L 342,512.36218 z"
         id="path8494"
         style="fill:#0000ff;fill-rule:evenodd;stroke:#0000ff;stroke-width:1.43999996pt;marker-start:none" />
    </g>
    <g
       id="g8496">
      <path
         d="M 220,531.46875 L 220,533.25 L 360,533.25 L 360,531.46875 L 220,531.46875 z"
         id="path4533"
         style="fill:#0000ff;fill-opacity:1;fill-rule:evenodd;stroke:none;stroke-width:1.79999995;stroke-linecap:butt;stroke-linejoin:miter;stroke-miterlimit:4;stroke-dasharray:none;stroke-opacity:1" />
      <path
         d="M 342,532.36218 L 334.8,539.56218 L 360,532.36218 L 334.8,525.16218 L 342,532.36218 z"
         id="path8502"
         style="fill:#0000ff;fill-rule:evenodd;stroke:#0000ff;stroke-width:1.43999996pt;marker-start:none" />
    </g>
    <g
       id="g8504">
      <path
         d="M 220,551.46875 L 220,553.25 L 360,553.25 L 360,551.46875 L 220,551.46875 z"
         id="path4535"
         style="fill:#0000ff;fill-opacity:1;fill-rule:evenodd;stroke:none;stroke-width:1.79999995;stroke-linecap:butt;stroke-linejoin:miter;stroke-miterlimit:4;stroke-dasharray:none;stroke-opacity:1" />
      <path
         d="M 342,552.36218 L 334.8,559.56218 L 360,552.36218 L 334.8,545.16218 L 342,552.36218 z"
         id="path8510"
         style="fill:#0000ff;fill-rule:evenodd;stroke:#0000ff;stroke-width:1.43999996pt;marker-start:none" />
    </g>
    <g
       id="g8512">
      <path
         d="M 220,571.46875 L 220,573.25 L 360,573.25 L 360,571.46875 L 220,571.46875 z"
         id="path4537"
         style="fill:#0000ff;fill-opacity:1;fill-rule:evenodd;stroke:none;stroke-width:1.79999995;stroke-linecap:butt;stroke-linejoin:miter;stroke-miterlimit:4;stroke-dasharray:none;stroke-opacity:1" />
      <path
         d="M 342,572.36218 L 334.8,579.56218 L 360,572.36218 L 334.8,565.16218 L 342,572.36218 z"
         id="path8518"
         style="fill:#0000ff;fill-rule:evenodd;stroke:#0000ff;stroke-width:1.43999996pt;marker-start:none" />
    </g>
    <g
       id="g8520">
      <path
         d="M 220,591.46875 L 220,593.25 L 360,593.25 L 360,591.46875 L 220,591.46875 z"
         id="path4539"
         style="fill:#0000ff;fill-opacity:1;fill-rule:evenodd;stroke:none;stroke-width:1.79999995;stroke-linecap:butt;stroke-linejoin:miter;stroke-miterlimit:4;stroke-dasharray:none;stroke-opacity:1" />
      <path
         d="M 342,592.36218 L 334.8,599.56218 L 360,592.36218 L 334.8,585.16218 L 342,592.36218 z"
         id="path8526"
         style="fill:#0000ff;fill-rule:evenodd;stroke:#0000ff;stroke-width:1.43999996pt;marker-start:none" />
    </g>
    <g
       id="g8528">
      <path
         d="M 220,629.875 L 220,634.875 L 360,634.875 L 360,629.875 L 220,629.875 z"
         id="path4541"
         style="fill:#000000;fill-opacity:1;fill-rule:evenodd;stroke:none;stroke-width:5;stroke-linecap:butt;stroke-linejoin:miter;stroke-miterlimit:4;stroke-dasharray:none;stroke-opacity:1" />
      <path
         d="M 240,632.36218 L 250,622.36218 L 215,632.36218 L 250,642.36218 L 240,632.36218 z"
         id="path8534"
         style="fill-rule:evenodd;stroke:#000000;stroke-width:2pt;marker-start:none" />
      <path
         d="M 340,632.36218 L 330,642.36218 L 365,632.36218 L 330,622.36218 L 340,632.36218 z"
         id="path8536"
         style="fill-rule:evenodd;stroke:#000000;stroke-width:2pt;marker-start:none" />
    </g>
    <text
       x="126"
       y="672.36218"
       id="text8318"
       xml:space="preserve"
       style="font-size:40px;font-style:normal;font-weight:normal;fill:#000000;fill-opacity:1;stroke:none;stroke-width:1px;stroke-linecap:butt;stroke-linejoin:miter;stroke-opacity:1;font-family:Bitstream Vera Sans;-inkscape-font-specification:Arial"><tspan
         x="126"
         y="672.36218"
         id="tspan8320"
         style="font-style:normal;font-variant:normal;font-weight:normal;font-stretch:normal;font-family:Arial;-inkscape-font-specification:Arial">Plate separation <tspan
   id="tspan8354"
   style="font-style:italic;-inkscape-font-specification:Arial Italic">d</tspan></tspan></text>
    <text
       x="145.625"
       y="512.36218"
       id="text8322"
       xml:space="preserve"
       style="font-size:40px;font-style:normal;font-variant:normal;font-weight:normal;font-stretch:normal;text-align:center;text-anchor:middle;fill:#0000ff;fill-opacity:1;stroke:none;stroke-width:1px;stroke-linecap:butt;stroke-linejoin:miter;stroke-opacity:1;font-family:Arial;-inkscape-font-specification:Arial"><tspan
         x="145.625"
         y="512.36218"
         id="tspan8324">Electric</tspan><tspan
         x="145.625"
         y="562.36218"
         id="tspan8326">field <tspan
   id="tspan8328"
   style="font-style:italic;fill:#0000ff;-inkscape-font-specification:Arial Italic">E</tspan></tspan></text>
    <text
       x="211.32812"
       y="252.36218"
       id="text8330"
       xml:space="preserve"
       style="font-size:40px;font-style:normal;font-variant:normal;font-weight:normal;font-stretch:normal;fill:#000000;fill-opacity:1;stroke:none;stroke-width:1px;stroke-linecap:butt;stroke-linejoin:miter;stroke-opacity:1;font-family:Arial;-inkscape-font-specification:Arial"><tspan
         x="211.32812"
         y="252.36218"
         id="tspan8332"
         style="text-align:end;text-anchor:end">Charge</tspan><tspan
         x="211.32812"
         y="302.36218"
         id="tspan8334"
         style="text-align:end;text-anchor:end">+<tspan
   id="tspan8336"
   style="font-style:italic;text-align:end;text-anchor:end;-inkscape-font-specification:Arial Italic">Q</tspan></tspan></text>
    <text
       x="372"
       y="302.36218"
       id="text8338"
       xml:space="preserve"
       style="font-size:40px;font-style:normal;font-variant:normal;font-weight:normal;font-stretch:normal;fill:#000000;fill-opacity:1;stroke:none;stroke-width:1px;stroke-linecap:butt;stroke-linejoin:miter;stroke-opacity:1;font-family:Arial;-inkscape-font-specification:Arial"><tspan
         x="372"
         y="302.36218"
         id="tspan8340">-<tspan
   id="tspan8342"
   style="font-style:italic">Q</tspan></tspan></text>
    <text
       x="430.56137"
       y="513.85498"
       id="text8344"
       xml:space="preserve"
       style="font-size:40px;font-style:normal;font-variant:normal;font-weight:normal;font-stretch:normal;text-align:center;text-anchor:middle;fill:#000000;fill-opacity:1;stroke:none;stroke-width:1px;stroke-linecap:butt;stroke-linejoin:miter;stroke-opacity:1;font-family:Arial;-inkscape-font-specification:Arial"><tspan
         x="430.56137"
         y="513.85498"
         id="tspan8346">Plate</tspan><tspan
         x="430.56137"
         y="563.85498"
         id="tspan8348">area <tspan
   id="tspan8350"
   style="font-style:italic;text-align:center;text-anchor:middle">A</tspan></tspan></text>
  </g>
</svg>
